<svg xmlns="http://www.w3.org/2000/svg" xmlns:xlink="http://www.w3.org/1999/xlink" width="635" height="279">
  <defs>
    <linearGradient id="a" x1="69%" x2="70.1%" y1="50%" y2="50%">
      <stop offset="0%" stop-color="#72B98E"/>
      <stop offset="100%" stop-color="#C4C4C4"/>
    </linearGradient>
    <linearGradient id="d" x1="0%" y1=".1%" y2="99.9%">
      <stop offset="0%" stop-color="#FFE60A"/>
      <stop offset="100%" stop-color="#FFB064"/>
    </linearGradient>
    <linearGradient id="c" x1="23.6%" x2="59.6%" y1="10.5%" y2="95.5%">
      <stop offset="0%" stop-color="#FFE013"/>
      <stop offset="100%" stop-color="#FFB55F"/>
    </linearGradient>
    <path id="b" d="M71.9 0c10 0 18 8 18 18v53.8c0 10-8 18.1-18 18.1H18c-10 0-18.1-8-18.1-18V18C0 8 8.1 0 18 0H72z"/>
    <linearGradient id="e" x1="50%" x2="9.3%" y1="57.3%" y2="19.6%">
      <stop offset="0%" stop-color="#F55245" stop-opacity="0"/>
      <stop offset="100%" stop-color="#C22924"/>
    </linearGradient>
    <linearGradient id="i" x1="50%" x2="50%" y1="0%" y2="100%">
      <stop offset="0%" stop-color="#FACA43"/>
      <stop offset="100%" stop-color="#FFA91D"/>
    </linearGradient>
    <path id="g" d="M57.2 3.1C54.9.8 52.3.7 51.2.6 42.6 0 30 0 30 0S17.4 0 9.1.6C7.7.7 5.2.8 3 3.1 1.2 5 .6 9.1.6 9.1S0 14 0 18.8v4.6c0 4.8.6 9.7.6 9.7s.6 4.1 2.4 6c2.3 2.3 5.3 2.2 6.6 2.5 4.8.4 20.5.6 20.5.6s12.6 0 21-.6c1.2-.2 3.8-.2 6-2.6 1.9-1.8 2.5-6 2.5-6s.6-4.8.6-9.6v-4.6c0-4.8-.6-9.7-.6-9.7s-.6-4.1-2.4-6z"/>
    <filter id="h" width="104.9%" height="107%" x="-2.4%" y="-3.5%" filterUnits="objectBoundingBox">
      <feOffset dy="-1" in="SourceAlpha" result="shadowOffsetInner1"/>
      <feComposite in="shadowOffsetInner1" in2="SourceAlpha" k2="-1" k3="1" operator="arithmetic" result="shadowInnerInner1"/>
      <feColorMatrix in="shadowInnerInner1" result="shadowMatrixInner1" values="0 0 0 0 0.91372549 0 0 0 0 0.91372549 0 0 0 0 0.91372549 0 0 0 1 0"/>
      <feOffset dy="-1" in="SourceAlpha" result="shadowOffsetInner2"/>
      <feComposite in="shadowOffsetInner2" in2="SourceAlpha" k2="-1" k3="1" operator="arithmetic" result="shadowInnerInner2"/>
      <feColorMatrix in="shadowInnerInner2" result="shadowMatrixInner2" values="0 0 0 0 0.91372549 0 0 0 0 0.91372549 0 0 0 0 0.91372549 0 0 0 1 0"/>
      <feMerge>
        <feMergeNode in="shadowMatrixInner1"/>
        <feMergeNode in="shadowMatrixInner2"/>
      </feMerge>
    </filter>
    <filter id="j" width="133.5%" height="118.2%" x="-16.7%" y="-9.1%" filterUnits="objectBoundingBox">
      <feGaussianBlur in="SourceGraphic" stdDeviation=".8"/>
    </filter>
    <linearGradient id="k" x1="50%" x2="50%" y1="0%" y2="100%">
      <stop offset="0%" stop-color="#FF8554"/>
      <stop offset="100%" stop-color="#FF403E"/>
    </linearGradient>
  </defs>
  <g fill="none" fill-rule="evenodd">
    <g fill="#555">
      <path d="M131.6 171.8l6.1 3.2-1.1-6.9 4.9-4.8-6.8-1-3.1-6.3-3 6.3-6.8 1 4.9 4.8-1.2 6.9zM101.3 171.8l6.1 3.2-1.2-6.9 5-4.8-6.8-1-3.1-6.3-3 6.3-6.8 1 4.9 4.8-1.2 6.9zM71 171.8l6.1 3.2-1.2-6.9 5-4.8-6.9-1-3-6.3-3 6.3-6.9 1 5 4.8-1.2 6.9zM40.7 171.8l6.1 3.2-1.2-6.9 4.9-4.8-6.8-1-3-6.3-3.1 6.3-6.8 1 5 4.8-1.2 6.9zM131.6 137.8l6.1 3.2-1.1-6.9 4.9-4.8-6.8-1-3.1-6.3-3 6.3-6.8 1 4.9 4.8-1.2 6.9zM101.3 137.8l6.1 3.2-1.2-6.9 5-4.8-6.8-1-3.1-6.3-3 6.3-6.8 1 4.9 4.8-1.2 6.9zM71 137.8l6.1 3.2-1.2-6.9 5-4.8-6.9-1-3-6.3-3 6.3-6.9 1 5 4.8-1.2 6.9zM40.7 137.8l6.1 3.2-1.2-6.9 4.9-4.8-6.8-1-3-6.3-3.1 6.3-6.8 1 5 4.8-1.2 6.9zM10.4 137.8l6.1 3.2-1.2-6.9 4.9-4.8-6.8-1-3-6.3-3.1 6.3-6.8 1 4.9 4.8-1.1 6.9z"/>
      <g>
        <path d="M131.6 205.8l6.1 3.2-1.1-6.9 4.9-4.8-6.8-1-3.1-6.3-3 6.3-6.8 1 4.9 4.8-1.2 6.9zM101.3 205.8l6.1 3.2-1.2-6.9 5-4.8-6.8-1-3.1-6.3-3 6.3-6.8 1 4.9 4.8-1.2 6.9zM71 205.8l6.1 3.2-1.2-6.9 5-4.8-6.9-1-3-6.3-3 6.3-6.9 1 5 4.8-1.2 6.9z"/>
      </g>
      <g>
        <path d="M131.6 239.8l6.1 3.2-1.1-6.9 4.9-4.8-6.8-1-3.1-6.3-3 6.3-6.8 1 4.9 4.8-1.2 6.9zM101.3 239.8l6.1 3.2-1.2-6.9 5-4.8-6.8-1-3.1-6.3-3 6.3-6.8 1 4.9 4.8-1.2 6.9z"/>
      </g>
      <g>
        <path d="M131.6 273.8l6.1 3.2-1.1-6.9 4.9-4.8-6.8-1-3.1-6.3-3 6.3-6.8 1 4.9 4.8-1.2 6.9z"/>
      </g>
    </g>
    <text fill="#555" font-family="PingFangSC-Semibold, PingFang SC" font-size="72" font-weight="500" transform="translate(0 -8)">
      <tspan x="35" y="76">4.9</tspan>
    </text>
    <path fill="#4A4A4A" d="M319 37.6a7.6 7.6 0 0 0-3-6.5c-1-.8-2.1-1.4-3.5-1.8-1.3-.5-2.8-.9-4.5-1.2-2-.3-3.4-.7-4.3-1.3-.9-.5-1.3-1.2-1.3-2.2a3.1 3.1 0 0 1 1.5-2.8c.4-.3 1-.5 1.5-.6a7.5 7.5 0 0 1 4 0 11.8 11.8 0 0 1 3.8 1.7l1.3 1.3 3.6-3.8a14 14 0 0 0-4.2-3c-.9-.4-2-.8-3.1-1-1.2-.3-2.6-.4-4-.4a13.2 13.2 0 0 0-8.1 2.7c-1 .8-1.8 1.8-2.3 2.9a7.5 7.5 0 0 0-.8 3.4c0 1 .1 2 .4 3 .3.9.9 1.8 1.7 2.6.7.7 1.8 1.4 3 2 1.4.7 3 1.1 5 1.5 2.2.3 3.9.9 5 1.5 1 .7 1.5 1.6 1.5 2.6 0 .7-.1 1.2-.4 1.7-.3.5-.7.9-1.2 1.2-.5.3-1.2.5-1.9.7-.7.2-1.4.2-2.2.2-.9 0-1.8-.1-2.6-.4a12.3 12.3 0 0 1-4.1-2.5c-.5-.5-1-1-1.1-1.3l-3.7 4.3 1.8 1.7a15.9 15.9 0 0 0 10 3.2c1.6 0 3.2-.2 4.7-.6 1.4-.4 2.7-1 3.8-1.7a8.4 8.4 0 0 0 3.7-7zm23 7.4V31c0-2-.6-3.8-1.8-5-1.3-1.4-3-2-5.3-2a10.6 10.6 0 0 0-4.5 1 8 8 0 0 0-1.6 1l-1.1 1v-2.4H322V45h5.7V31a8 8 0 0 1 2-1.7c.7-.5 1.6-.7 2.7-.7s2 .3 2.8 1c.7.6 1.1 1.5 1.1 2.9V45h5.7zm12.6-21c1.3 0 2.5.2 3.7.5a9 9 0 0 1 3 1.4c.8.7 1.5 1.5 2 2.5s.7 2.1.7 3.5v13.5h-5.6v-2.2c-.2.5-.6.9-1 1.2-.4.4-1 .6-1.5.9a9.8 9.8 0 0 1-3.4.7c-1 0-2-.1-3-.4-1-.2-1.9-.7-2.7-1.2a6.3 6.3 0 0 1-2.8-5.5c0-1.4.3-2.5.8-3.4.5-1 1.2-1.7 2-2.2.8-.5 1.8-1 2.8-1.2l3-.3a8.9 8.9 0 0 1 4.8 1.5c.4.3.8.7 1 1.1v-2.7c0-1-.4-1.9-1.3-2.6-.8-.7-2-1.1-3.2-1.1a9 9 0 0 0-6.4 2.7l-2.4-3.2c.7-.8 1.5-1.4 2.3-1.8a12.5 12.5 0 0 1 5-1.6l2.2-.1zm4.4 16v-3c-.4-.7-1-1.2-1.9-1.5a7 7 0 0 0-4-.3c-.5 0-1 .3-1.5.5l-1.1 1.1c-.3.5-.5 1-.5 1.7s.2 1.2.5 1.7c.3.4.7.8 1.1 1l1.5.6 1.5.2c.8 0 1.7-.2 2.5-.5.9-.4 1.5-.9 1.9-1.5zm30-5c0 1.8-.2 3.4-.7 4.8-.5 1.3-1.2 2.5-2 3.4a8.6 8.6 0 0 1-6.6 3c-1.4 0-2.6-.3-3.7-.8-1.1-.6-2-1.4-2.5-2.4v11H368V24.6h5.5v2.6c.6-1 1.4-1.8 2.5-2.4 1-.5 2.3-.8 3.7-.8a8.8 8.8 0 0 1 8.6 6.4c.5 1.4.7 3 .7 4.7zm-6 .5a8 8 0 0 0-.4-2.6c-.3-.8-.7-1.5-1.1-2a5 5 0 0 0-4-1.9c-1 0-1.8.2-2.6.6-.8.4-1.5.9-1.9 1.6v8.6c.4.7 1 1.2 1.9 1.6.8.4 1.7.6 2.7.6a4.9 4.9 0 0 0 3.9-1.8c.4-.6.8-1.3 1-2.1a8 8 0 0 0 .5-2.6zm21 9.1l-1.7-4-.7.5a3 3 0 0 1-1.4.2c-.7 0-1.2-.2-1.5-.6-.3-.5-.5-1-.5-1.7V28.7h4.4v-4h-4.4V19h-5.7v5.6H389v4.1h3.5v11.1c0 1 .1 1.7.4 2.5a5 5 0 0 0 1.1 2c.5.5 1.2 1 2 1.2a8 8 0 0 0 3 .5 7.4 7.4 0 0 0 5-1.4zm21 .8V25h-5.7v14.1a9 9 0 0 1-2 1.6c-.7.5-1.6.7-2.7.7s-2-.3-2.8-.9c-.7-.6-1.1-1.6-1.1-3V25H405v14a7 7 0 0 0 1.8 5c1.3 1.4 3 2 5.3 2a10.5 10.5 0 0 0 4.5-1 8 8 0 0 0 1.6-1l1.1-1v2.4h5.7zm24-10.3c0 1.7-.2 3.3-.7 4.6a10 10 0 0 1-2 3.4 8.6 8.6 0 0 1-6.6 2.9c-1.4 0-2.6-.3-3.7-.8s-2-1.3-2.5-2.3v2.5H428l.6-28.4h5.5l-.6 10.4c.6-1 1.4-1.8 2.5-2.3 1-.6 2.3-.9 3.7-.9a9 9 0 0 1 6.6 3c.8.9 1.5 2 2 3.3.5 1.4.7 3 .7 4.6zm-5 .4a8 8 0 0 0-.4-2.6c-.3-.8-.7-1.5-1.1-2a5 5 0 0 0-4-1.9c-1 0-1.8.2-2.6.6-.8.4-1.5.9-1.9 1.6v8.6c.4.7 1 1.2 1.9 1.6.8.4 1.7.6 2.7.6a4.9 4.9 0 0 0 3.9-1.8c.4-.6.8-1.3 1-2.1a8 8 0 0 0 .5-2.6zm29 1.3h-15.6c.3 1.4 1 2.5 2 3.4 1 .9 2.3 1.3 3.9 1.3a7.8 7.8 0 0 0 2.8-.5l1.5-.7a6 6 0 0 0 1.2-1l2.7 3.3c-.6.7-1.3 1.2-2 1.7a11.3 11.3 0 0 1-4.6 1.5l-2 .2c-1.6 0-3-.3-4.3-.8a10.2 10.2 0 0 1-5.8-5.8c-.5-1.3-.8-2.8-.8-4.4 0-1.5.3-3 .8-4.2a10.7 10.7 0 0 1 5.5-6c1.3-.5 2.7-.8 4.3-.8a10.2 10.2 0 0 1 9.6 6.6c.5 1.4.8 2.8.8 4.4v1.8zm-5-3.8a7 7 0 0 0-.5-1.8c-.3-.6-.6-1.2-1-1.6a5 5 0 0 0-1.7-1.2c-.7-.3-1.5-.4-2.3-.4-.9 0-1.6.1-2.2.4-.7.3-1.2.6-1.6 1.1A6.2 6.2 0 0 0 457 33h11z"/>
    <path fill="#72B98E" d="M308 84.5l-7.6 4 1.4-8.5-6.2-6 8.6-1.3L308 65l3.8 7.7 8.6 1.3-6.2 6 1.4 8.5zM346 84.5l-7.6 4 1.4-8.5-6.2-6 8.6-1.3L346 65l3.8 7.7 8.6 1.3-6.2 6 1.4 8.5zM384 84.5l-7.6 4 1.4-8.5-6.2-6 8.6-1.3L384 65l3.8 7.7 8.6 1.3-6.2 6 1.4 8.5zM422 84.5l-7.6 4 1.4-8.5-6.2-6 8.6-1.3L422 65l3.8 7.7 8.6 1.3-6.2 6 1.4 8.5z"/>
    <path fill="url(#a)" d="M165 19.5l-7.6 4 1.4-8.5-6.2-6 8.6-1.3L165 0l3.8 7.7 8.6 1.3-6.2 6 1.4 8.5z" transform="translate(295 65)"/>
    <g>
      <g transform="translate(168 1)">
        <mask id="f" fill="#fff">
          <use xlink:href="#b"/>
        </mask>
        <use fill="url(#d)" stroke="url(#c)" xlink:href="#b"/>
        <path fill="url(#e)" d="M19.8 64.9l33.9 31.9 41.2 4.1 12.5-36L72 26.2z" mask="url(#f)" opacity=".3"/>
      </g>
      <g transform="translate(183 25)">
        <use fill="#FFF" xlink:href="#g"/>
        <use fill="#000" filter="url(#h)" xlink:href="#g"/>
        <path stroke="url(#i)" d="M57.5 2.8c.7.7 1.2 1.6 1.6 2.7a17.3 17.3 0 0 1 1 4.4 95.6 95.6 0 0 1 .6 9v4.5a82.9 82.9 0 0 1-.9 10.8c-.1.9-.4 1.7-.7 2.4a7.8 7.8 0 0 1-2.8 3.8c-1.5 1.1-2.6 1.4-5 1.6h-.1a199.5 199.5 0 0 1-19.9.7h-1.2A458.2 458.2 0 0 1 9 42c-2.3-.3-2.9-.4-4.1-1-.9-.4-1.7-1-2.4-1.6A7.8 7.8 0 0 1 1 36.6a17.3 17.3 0 0 1-1-4.3 95.4 95.4 0 0 1-.5-9v-4.5A82.7 82.7 0 0 1 .3 8L1 5.5A7.8 7.8 0 0 1 4 1.7C5.4.7 6.5.4 8.8.1H9a195.1 195.1 0 0 1 19.9-.6h1.5a331.4 331.4 0 0 1 21 .6c2.3.3 3.4.5 4.9 1.6l1.2 1.1z"/>
      </g>
      <path fill="#FF625E" d="M33.3 20.5v6.8h3.4a.6.6 0 0 1 .5.9l-5.5 6a2.1 2.1 0 0 1-3 0h-.1l-5.5-6a.6.6 0 0 1 .3-.9H27v-6.8h6.4zm0-7.7v1.8h-6.4v-1.8h6.4zm-.6-4.5c.3 0 .6.3.6.7v1.2h-6.4V9c0-.4.3-.7.7-.7h5z" filter="url(#j)" transform="translate(183 25)"/>
      <path fill="url(#k)" stroke="#FF5144" d="M34 16.8v8.5h4.4a.7.7 0 0 1 .5 1v.2L32 33.8a2.6 2.6 0 0 1-3.8 0h-.1l-6.8-7.3a.7.7 0 0 1 .4-1.2H26.2v-8.5H34zm0-4.6v2.3h-7.8v-2.3H34zm-.7-4.6c.4 0 .8.4.8.8V10h-8V8.4c0-.4.4-.8.9-.8h6.3z" transform="translate(183 25)"/>
    </g>
    <g>
      <path fill="#72B98E" stroke="#46A76C" d="M168.5 119.5h466v23h-466z"/>
      <path fill="#A5CD76" stroke="#7AB139" d="M168.5 153.5h80v23h-80z"/>
      <path fill="#FCEC61" stroke="#D9C936" d="M168.5 187.5h25v23h-25z"/>
      <path fill="#7B63F3" stroke="#5E44E1" d="M168.5 221.5h4v23h-4z"/>
      <path fill="#F08E6F" stroke="#C57459" d="M168.5 255.5h4v23h-4z"/>
    </g>
  </g>
</svg>
